<svg width="40" height="41" viewBox="0 0 40 41" fill="none" xmlns="http://www.w3.org/2000/svg">
<g clip-path="url(#clip0_4_3867)">
<path d="M19.9834 3.3728C10.7834 3.3728 3.33337 10.8395 3.33337 20.0395C3.33337 29.2395 10.7834 36.7061 19.9834 36.7061C29.2 36.7061 36.6667 29.2395 36.6667 20.0395C36.6667 10.8395 29.2 3.3728 19.9834 3.3728ZM20 33.3728C12.6334 33.3728 6.66671 27.4061 6.66671 20.0395C6.66671 12.6728 12.6334 6.70614 20 6.70614C27.3667 6.70614 33.3334 12.6728 33.3334 20.0395C33.3334 27.4061 27.3667 33.3728 20 33.3728Z" fill="#BABABA"/>
<path d="M20.8334 11.7062H18.3334V21.7062L27.0834 26.9562L28.3334 24.9062L20.8334 20.4562V11.7062Z" fill="#BABABA"/>
</g>
<defs>
<clipPath id="clip0_4_3867">
<rect width="40" height="40" fill="white" transform="translate(0 0.0394897)"/>
</clipPath>
</defs>
</svg>
