<svg width="1250" height="1250" viewBox="0 0 1250 1250" fill="none" xmlns="http://www.w3.org/2000/svg">
<mask id="path-1-inside-1_3_22" fill="white">
<path d="M0 79C0 35.3695 35.3695 0 79 0H1171C1214.63 0 1250 35.3695 1250 79V1171C1250 1214.63 1214.63 1250 1171 1250H79C35.3695 1250 0 1214.63 0 1171V79Z"/>
</mask>
<path d="M0 79C0 35.3695 35.3695 0 79 0H1171C1214.63 0 1250 35.3695 1250 79V1171C1250 1214.63 1214.63 1250 1171 1250H79C35.3695 1250 0 1214.63 0 1171V79Z" fill="#FF3056"/>
<path d="M0 0H1250H0ZM1294 1171C1294 1238.93 1238.93 1294 1171 1294H123C55.069 1294 0 1238.93 0 1171C0 1190.33 35.3695 1206 79 1206H1171C1190.33 1206 1206 1190.33 1206 1171H1294ZM0 1250V0V1250ZM1171 0C1238.93 0 1294 55.069 1294 123V1171C1294 1238.93 1238.93 1294 1171 1294V1206C1190.33 1206 1206 1190.33 1206 1171V79C1206 35.3695 1190.33 0 1171 0Z" fill="#992323" mask="url(#path-1-inside-1_3_22)"/>
<path d="M54 87C54 73.7452 64.7452 63 78 63H253.311C279.213 63 286.745 98.3628 263.09 108.917L151.047 158.909C145.852 161.227 141.649 165.316 139.188 170.445L99.6384 252.877C88.5912 275.903 54 268.034 54 242.496V87Z" fill="white" fill-opacity="0.53"/>
<path d="M228 272.668C228.259 274.485 240.195 352.358 254.726 445.806L281.193 615.569L254.726 794.937C240.195 893.576 228 975.862 228 977.419C228 981.832 790.806 982.351 828.949 977.939C895.375 970.67 949.606 944.194 981.781 903.44C1008.51 869.955 1022 827.903 1022 778.064C1022 714.468 1000.2 669.821 953.498 638.671C934.556 625.952 901.862 610.897 887.072 608.041C882.92 607.003 879.288 605.705 879.547 604.667C879.547 603.888 887.85 597.918 897.97 591.428C945.973 560.798 972.18 512.777 974.516 451.257C976.073 414.657 971.661 390.516 958.169 363.26C941.562 329.775 907.311 300.443 867.092 285.906C824.538 270.591 841.663 271.37 521.988 270.332C283.528 269.553 228 270.072 228 272.668ZM687.275 433.346C701.546 436.461 716.076 447.104 722.304 458.785C732.424 478.512 729.05 500.057 712.703 517.709C695.837 536.139 690.388 536.917 588.154 536.917C539.892 536.917 500.451 535.879 500.451 534.841C500.451 533.543 497.078 511.479 492.667 485.521C488.515 459.304 484.882 436.461 484.882 434.384C484.882 431.01 497.856 430.491 579.592 430.491C638.493 430.491 678.971 431.529 687.275 433.346ZM732.164 698.893C748.511 703.825 758.631 711.613 766.934 725.889C773.161 736.272 774.199 740.945 774.199 757.817C774.199 775.209 773.161 778.843 766.415 790.264C760.188 799.869 754.739 804.801 743.062 810.771L727.753 818.558L604.761 819.337L481.769 820.116L483.066 814.145C483.844 810.771 488.256 782.737 492.926 751.587L501.489 695.259H610.729C696.356 695.259 722.823 696.038 732.164 698.893Z" fill="black"/>
</svg>
