<svg width="1250" height="1250" viewBox="0 0 1250 1250" fill="none" xmlns="http://www.w3.org/2000/svg">
<mask id="path-1-inside-1_17_309" fill="white">
<path d="M0 79C0 35.3695 35.3695 0 79 0H1171C1214.63 0 1250 35.3695 1250 79V1171C1250 1214.63 1214.63 1250 1171 1250H79C35.3695 1250 0 1214.63 0 1171V79Z"/>
</mask>
<path d="M0 79C0 35.3695 35.3695 0 79 0H1171C1214.63 0 1250 35.3695 1250 79V1171C1250 1214.63 1214.63 1250 1171 1250H79C35.3695 1250 0 1214.63 0 1171V79Z" fill="#FF3056"/>
<path d="M0 0H1250H0ZM1294 1171C1294 1238.93 1238.93 1294 1171 1294H123C55.069 1294 0 1238.93 0 1171C0 1190.33 35.3695 1206 79 1206H1171C1190.33 1206 1206 1190.33 1206 1171H1294ZM0 1250V0V1250ZM1171 0C1238.93 0 1294 55.069 1294 123V1171C1294 1238.93 1238.93 1294 1171 1294V1206C1190.33 1206 1206 1190.33 1206 1171V79C1206 35.3695 1190.33 0 1171 0Z" fill="#992323" mask="url(#path-1-inside-1_17_309)"/>
<path d="M494.283 622.714V1095.58H540.743H587.204V669.616L587.056 243.805L540.743 196.902L494.283 150V622.714Z" fill="black"/>
<path d="M425.845 199.41L382.188 244.248V253.982C382.188 259.292 382.63 263.717 383.367 263.717C383.957 263.717 404.164 243.953 428.353 219.764L472.158 175.959V165.192C472.158 159.439 471.568 154.572 470.831 154.572C470.241 154.572 449.887 174.779 425.845 199.41Z" fill="black"/>
<path d="M445.609 308.26C432.188 311.357 412.423 315.929 401.804 318.437L382.188 323.009V332.449C382.188 341.151 382.482 341.888 385.285 341.888C388.825 341.888 463.456 332.006 468.913 330.826C472.011 330.089 472.158 329.351 472.158 316.814C472.158 309.587 471.716 303.393 471.126 303.098C470.388 302.803 459.031 305.163 445.609 308.26Z" fill="black"/>
<path d="M659.18 370.206L601.953 415.929V757.965V1100H659.475H716.997V712.094C716.997 498.672 716.85 324.189 716.702 324.336C716.407 324.336 690.596 344.985 659.18 370.206ZM687.499 734.956V1079.35H658H628.502V754.425V429.351L657.705 410.029C673.635 399.262 686.909 390.56 687.204 390.56C687.351 390.56 687.499 545.575 687.499 734.956Z" fill="black"/>
<path d="M745.02 714.307V1100H800.329H855.639V757.817V415.634L801.214 372.124C771.273 348.23 746.494 328.613 745.904 328.613C745.462 328.613 745.02 502.212 745.02 714.307ZM804.607 410.472L833.515 429.646V452.065C833.515 464.454 833.073 474.631 832.483 474.631C831.745 474.631 819.061 473.009 804.164 470.944C789.267 468.879 776.288 467.256 775.108 467.256C773.338 467.256 773.043 460.619 773.043 428.761C773.043 407.079 773.633 390.56 774.371 390.855C775.108 391.003 788.677 399.852 804.607 410.472ZM822.453 510.472L832.778 512.242L833.22 536.283C833.515 558.407 833.368 560.177 831.008 560.029C829.533 560.029 816.111 558.849 801.067 557.522L773.781 555.015L773.338 528.318L773.043 501.622L792.512 505.015C803.279 506.932 816.848 509.439 822.453 510.472ZM815.079 596.165L832.778 597.787L833.22 621.681L833.515 645.723H803.279H773.043V619.026V592.478L785.285 593.51C791.922 594.1 805.344 595.28 815.079 596.165ZM832.483 683.628C833.073 683.923 833.515 694.838 833.515 707.817V731.268H803.279H773.043V706.047V680.826L802.247 681.858C818.176 682.448 831.745 683.186 832.483 683.628ZM833.515 797.64V821.239H803.279H773.043V797.64V774.041H803.279H833.515V797.64ZM833.515 883.186V906.785H803.279H773.043V883.186V859.587H803.279H833.515V883.186ZM833.515 968.732V992.33H803.279H773.043V968.732V945.133H803.279H833.515V968.732ZM833.515 1054.28V1077.88H803.279H773.043V1054.28V1030.68H803.279H833.515V1054.28Z" fill="black"/>
<path d="M423.486 426.548L382.926 431.121L382.483 443.363L382.041 455.457L387.646 454.72C390.743 454.277 410.212 452.212 430.861 450.295C451.51 448.23 469.357 446.312 470.389 445.87C471.569 445.428 472.159 441.593 472.159 433.333V421.534L468.177 421.681C465.817 421.829 445.758 424.041 423.486 426.548Z" fill="black"/>
<path d="M382.188 545.575V556.195L395.167 555.162C402.247 554.72 421.568 553.54 438.235 552.655C454.901 551.918 469.356 550.885 470.388 550.443C471.716 550.148 472.158 547.64 471.863 542.92L471.421 535.841L426.878 535.398L382.188 535.103V545.575Z" fill="black"/>
<path d="M935.432 587.61L885.137 622.419L885.432 860.767L885.874 1099.26L936.464 1099.71L986.907 1100V826.401C986.907 675.959 986.612 552.802 986.317 552.802C986.022 552.802 963.16 568.436 935.432 587.61ZM952.983 630.973C952.983 651.622 952.541 657.522 951.066 657.522C950.033 657.522 941.184 658.554 931.597 659.734C921.862 660.914 911.685 661.947 909.178 661.947H904.311V646.608V631.268L927.615 617.846C940.299 610.472 951.213 604.425 951.951 604.425C952.541 604.425 952.983 616.372 952.983 630.973ZM952.983 700.147V719.026L937.939 720.059C929.532 720.649 918.618 721.386 913.603 721.976L904.311 722.861V705.9V688.938L928.352 685.251C941.479 683.186 952.393 681.416 952.688 681.268C952.836 681.121 952.983 689.675 952.983 700.147ZM952.983 763.717V782.891L929.09 782.596L905.048 782.153L904.606 765.487C904.311 750.442 904.458 748.967 906.818 748.82C911.39 748.672 952.246 744.985 952.688 744.69C952.836 744.69 952.983 753.245 952.983 763.717ZM952.983 824.189V841.888H928.647H904.163L904.606 825.221L905.048 808.702L923.485 807.964C933.662 807.522 944.429 806.932 947.526 806.785L952.983 806.49V824.189ZM952.983 889.085V905.31H928.647H904.311V889.085V872.861H928.647H952.983V889.085ZM952.983 948.82V965.782H928.647H904.311V948.82V931.858H928.647H952.983V948.82ZM952.983 1008.55V1024.78H928.647H904.311V1008.55V992.33H928.647H952.983V1008.55ZM952.983 1068.29V1085.25H928.647H904.311V1068.29V1051.33H928.647H952.983V1068.29Z" fill="black"/>
<path d="M270.094 824.779V1095.58H316.554H363.014V856.785V617.994L318.471 587.168C293.84 570.206 272.896 555.899 272.011 555.162C270.536 554.277 270.094 608.702 270.094 824.779Z" fill="black"/>
<path d="M202.248 587.315L158.737 617.256L158.295 856.49L158 1095.58H202.985H247.971V826.401C247.971 678.318 247.381 557.227 246.791 557.227C246.201 557.227 226.142 570.796 202.248 587.315ZM222.897 653.097C222.012 653.687 213.457 654.867 204.018 655.9C194.578 656.932 184.254 658.112 181.156 658.554L175.552 659.439L175.994 643.363L176.437 627.433L200.035 613.864L223.634 600.147L224.077 626.106C224.372 643.805 223.929 652.507 222.897 653.097ZM224.372 696.46V714.602L217.44 715.487C213.457 716.077 202.543 716.814 193.103 717.404L175.699 718.436V702.065V685.693L180.566 684.808C189.563 683.186 219.209 678.466 221.864 678.318C224.077 678.171 224.372 679.941 224.372 696.46ZM224.372 760.029V778.466H200.035H175.552L175.994 761.799L176.437 745.28L194.873 743.658C205.05 742.773 215.817 741.888 218.914 741.74L224.372 741.593V760.029ZM224.372 821.239V838.938L200.478 838.643L176.437 838.2L175.994 821.681L175.552 805.162L184.106 804.572C188.826 804.277 199.74 803.982 208.59 803.835L224.372 803.54V821.239ZM224.372 885.398V902.36L200.478 902.065L176.437 901.622L175.994 884.956L175.552 868.436H200.035H224.372V885.398ZM224.372 944.395V961.357H200.035H175.699V945.428C175.699 936.578 176.142 928.908 176.732 928.466C177.174 927.876 188.236 927.434 201.068 927.434H224.372V944.395ZM224.372 1004.87V1021.83L200.478 1021.53L176.437 1021.09L175.994 1004.42L175.552 987.906H200.035H224.372V1004.87ZM224.372 1064.6V1080.83H200.035H175.699V1064.6V1048.38H200.035H224.372V1064.6Z" fill="black"/>
<path d="M1009.03 832.891V1100H1050.33H1091.63L1091.48 860.619V621.386L1051.66 594.1C1029.83 579.056 1011.25 566.519 1010.51 566.372C1009.48 566.077 1009.03 663.422 1009.03 832.891Z" fill="black"/>
<path d="M382.188 653.835V663.422L426.878 663.127L471.421 662.684L471.863 653.392L472.306 644.248H427.173H382.188V653.835Z" fill="black"/>
<path d="M382.188 768.879V778.466H427.173H472.306L471.863 769.174L471.421 760.03L426.878 759.587L382.188 759.292V768.879Z" fill="black"/>
<path d="M382.188 879.498V887.61L426.878 887.315L471.421 886.873V879.498V872.124L426.878 871.681L382.188 871.386V879.498Z" fill="black"/>
<path d="M382.188 995.28V1002.65H427.173H472.158V995.28V987.906H427.173H382.188V995.28Z" fill="black"/>
<path d="M382.188 1088.2V1095.58H427.32H472.306L471.863 1088.5L471.421 1081.56L426.878 1081.12L382.188 1080.83V1088.2Z" fill="black"/>
<path d="M48 68C48 54.7452 58.7452 44 72 44H247.311C273.213 44 280.745 79.3628 257.09 89.9173L145.047 139.909C139.852 142.227 135.649 146.316 133.188 151.445L93.6384 233.877C82.5912 256.903 48 249.034 48 223.496V68Z" fill="white" fill-opacity="0.53"/>
</svg>
